<?xml version="1.0" encoding="UTF-8"?>
<!-- Generator: Adobe Illustrator 27.7.0, SVG Export Plug-In . SVG Version: 6.00 Build 0)  -->
<svg xmlns="http://www.w3.org/2000/svg" xmlns:xlink="http://www.w3.org/1999/xlink" version="1.1" id="Layer_1" x="0px" y="0px" viewBox="0 0 220.1 40.1" style="enable-background:new 0 0 220.1 40.1;" xml:space="preserve">
<style type="text/css">
	.st0{fill:#FFFFFF;}
</style>
<g transform="translate(-1 -13.754)">
	<path class="st0" d="M56.3,53.8c1.1,0,1.2-0.9,1.3-1.7c1.9-10.1,3.8-20.3,5.7-30.4c0-0.2,0.1-0.4,0.1-0.6l0.2,0v31.8h2.5   c0,0,0-25.1,0-36.9c0-2.1-3.8-2.3-4.2-0.3c-1.1,5.5-2.1,11-3.1,16.5c-0.7,4-2.3,12.6-2.6,12.9c-0.3-0.3-1.8-8.9-2.6-12.9   c-1-5.5-2-11-3.1-16.5c-0.4-2-4.2-1.8-4.2,0.3c0,11.8,0,36.9,0,36.9h2.5V21.1l0.2,0c0,0.2,0.1,0.4,0.1,0.6   C51.1,31.8,53,42,54.8,52.1c0.2,0.8,0.3,1.7,1.3,1.7L56.3,53.8z"></path>
	<path class="st0" d="M213.7,27c0.6,3.2,1.2,6.5,1.8,9.7c0.9,5,1.8,10,2.7,15.1c0.2,1.1,0.8,1.3,1.7,1.2s1.1-0.5,1.1-1.3   c0-9.6,0-29.6,0-29.6h-1.5v27.7l-0.2,0c0,0-1.3-7.2-2-10.9c-0.9-5.2-1.9-10.4-2.8-15.6c0-0.3-0.1-0.5-0.2-0.8   c-0.2-0.3-0.5-0.6-0.7-0.8c-0.3,0.2-0.5,0.5-0.7,0.8c-0.1,0.2-0.2,0.5-0.2,0.8c-0.9,5.2-1.9,10.4-2.8,15.6c-0.7,3.6-2,10.9-2,10.9   l-0.2,0V22.1h-1.5c0,0,0,20,0,29.6c0,0.8,0.2,1.3,1.1,1.3s1.5-0.1,1.7-1.2c0.9-5,1.8-10.1,2.7-15.1c0.6-3.2,1.2-6.5,1.8-9.7   L213.7,27L213.7,27z"></path>
	<path class="st0" d="M146.8,44.9c0,1,0,1.9,0,2.7c0,4.2,1.8,5.9,6,5.7c2.2,0,4.1-1.7,4.3-3.9c0.3-1.8,0.1-3.7-0.7-5.4   c-0.7-1.5-1.5-3.1-2.3-4.6c-1.4-2.5-2.8-5.1-4.1-7.6c-0.8-1.7-1-3.6-0.4-5.4c0.2-1.1,1.2-1.9,2.4-1.8c1.6,0,2.3,0.5,2.6,2.1   c0.2,1.1,0.2,2.3,0.3,3.5h2.5c0-1.4-0.1-2.8-0.3-4.1c-0.5-2.8-2.4-4.1-5.5-4c-2.3,0.1-4.1,1.9-4.6,4.6c-0.4,2.5,0,5.1,1.3,7.3   c1.8,3.2,3.7,6.3,5.3,9.6c0.7,1.5,1.1,3,1.2,4.6c0.2,2-0.7,2.6-2.7,2.6c-2,0-2.7-0.7-2.7-2.7c0-1.1,0-2.1,0-3.2L146.8,44.9z"></path>
	<path class="st0" d="M97.1,44.3c-0.1,1.3,0,2.5-0.2,3.7c-0.2,1.8-1.2,2.8-2.8,2.8c-2.3,0.1-3.1-0.6-3.6-2.6   c-0.1-0.5-0.2-1.1-0.2-1.6c0-4.8,0-15.4,0-15.4h7.2v-2.5h-7.2V18.1h-2.5c0,0,0,19.3,0,28.4c0,0.7,0.1,1.4,0.2,2.2   c0.3,2.6,2.6,4.6,5.2,4.6c3.4,0.1,5.4-1.3,6-4.4c0.2-1.5,0.4-3.1,0.4-4.6L97.1,44.3z"></path>
	<path class="st0" d="M114.2,44.3c-0.1,1.3,0,2.5-0.2,3.7c-0.2,1.8-1.2,2.8-2.8,2.8c-2.3,0.1-3.1-0.6-3.6-2.6   c-0.1-0.5-0.2-1.1-0.2-1.6c0-4.8,0-15.4,0-15.4h7.2v-2.5h-7.2V18.1h-2.5c0,0,0,19.3,0,28.4c0,0.7,0.1,1.4,0.2,2.2   c0.3,2.6,2.6,4.6,5.2,4.6c3.4,0.1,5.4-1.3,6-4.4c0.2-1.5,0.4-3.1,0.4-4.6L114.2,44.3z"></path>
	<path class="st0" d="M174.3,13.8c0,0.5,0,30.6,0,37.6c0,1.3,0.4,1.7,1.6,1.6c1.6-0.1,3.2,0,4.7,0c3.3-0.1,5.3-2,5.4-5.4   c0-0.2,0-0.3,0-0.5c-0.4,0-1,0.1-1.3,0.1c0,0.5-0.1,1-0.2,1.6c-0.2,1.4-1.3,2.4-2.7,2.5c-2,0.1-6,0-6,0V13.8H174.3z"></path>
	<rect x="139" y="23.1" class="st0" width="2.3" height="29.8"></rect>
	<rect x="139" y="18.1" class="st0" width="2.3" height="3.1"></rect>
	<path class="st0" d="M13.8,21.3c0-1-0.1-2-0.3-3c-0.5-2.8-3-4.8-5.8-4.6c-1.5,0-3,0-4.5,0C1.3,13.8,1,14,1,15.9C1,21.7,1,45.1,1,51   c0,1.7,0.3,2,2.1,2c1.4,0,2.8,0,4.2,0c4.3,0,6.5-2.1,6.5-6.5C13.8,38.2,13.8,29.7,13.8,21.3z M11.2,46.7c0,2.9-1,3.8-3.9,3.9   c-1.2,0-3.7,0-3.7,0V16.3c1.7-0.1,3.4-0.1,5.1,0.1c0.9,0.3,1.6,0.9,2,1.8c0.4,1,0.6,2,0.5,3C11.2,29.7,11.2,38.2,11.2,46.7z"></path>
	<path class="st0" d="M82.2,28c0-0.9-0.1-1.8-0.4-2.7c-0.5-1.9-2.2-3.2-4.2-3.3c-2.8-0.1-4.6,0.8-5.3,3c-0.4,1.6-0.6,3.3-0.8,4.9   h2.8c0-1-0.1-1.9,0-2.8c0.1-1.9,0.9-2.7,2.7-2.7s2.5,0.7,2.6,2.7s0.1,3.9,0,5.8c-0.1,0.5-0.4,0.9-0.7,1.1c-1.4,1.1-2.9,2-4.3,3.1   c-1.9,1.6-3,4-2.9,6.4c0,1.5,0,3,0,4.5c0.1,3.3,1.9,5.1,5.3,5.1c3.3,0,5.1-1.8,5.1-5.1C82.2,41.5,82.2,34.7,82.2,28z M79.6,48.9   c0,1.5-0.8,1.9-2.5,1.9c-1.8,0-2.6-0.5-2.7-1.9c-0.1-2.1-0.1-4.2,0-6.4c0.1-1,0.6-1.9,1.2-2.6c1.3-1.2,2.6-2.4,4-3.5   C79.6,36.4,79.7,44.9,79.6,48.9L79.6,48.9z"></path>
	<path class="st0" d="M27.4,44.7c0,1.3,0,2.5,0,3.6c-0.1,1.8-0.8,2.4-2.5,2.4c-2.1,0-2.9-0.5-2.9-2.3c-0.1-3.2,0-6.4,0-9.8   c2.2,0,4.2,0,6.2,0c0.9,0,1.7-0.3,1.7-1.3c0-3.7,0.1-7.3-0.2-11c-0.2-2.8-2.3-4.3-5.1-4.3c-2.6-0.1-4.8,1.8-5,4.4   c-0.1,0.8-0.2,1.6-0.1,2.4c0,6.2,0,12.5,0,18.7c0,0.6,0,1.2,0.1,1.8c0.2,2.2,2,3.9,4.3,4c3.2,0.2,5.3-0.8,5.8-3.2   c0.3-1.8,0.4-3.6,0.4-5.3L27.4,44.7z M22,27.4c0.1-2.2,1-2.9,2.9-2.8c1.1-0.1,2.1,0.7,2.2,1.8c0.2,1.2,0.3,2.5,0.3,3.8   c0,2,0,3.9,0,6h-5.5C21.9,36.1,21.9,30.1,22,27.4L22,27.4z"></path>
	<path class="st0" d="M129.8,44.7c0,1.3,0,2.5,0,3.6c-0.1,1.8-0.8,2.4-2.5,2.4c-2.1,0-2.9-0.5-2.9-2.3c-0.1-3.2,0-6.4,0-9.8   c2.2,0,4.2,0,6.2,0c0.9,0,1.7-0.3,1.7-1.3c0-3.7,0.1-7.3-0.2-11c-0.2-2.8-2.3-4.3-5.1-4.3c-2.6-0.1-4.8,1.8-5,4.4   c-0.1,0.8-0.2,1.6-0.1,2.4c0,6.2,0,12.5,0,18.7c0,0.6,0,1.2,0.1,1.8c0.2,2.2,2,3.9,4.3,4c3.2,0.2,5.3-0.8,5.8-3.2   c0.3-1.8,0.4-3.6,0.4-5.3L129.8,44.7z M124.4,27.4c0.1-2.2,0.9-2.9,2.9-2.8c1.1-0.1,2.1,0.7,2.2,1.8c0.2,1.2,0.3,2.5,0.3,3.8   c0,2,0,3.9,0,6h-5.5C124.3,36.1,124.3,30.1,124.4,27.4L124.4,27.4z"></path>
	<path class="st0" d="M200.3,27.9c0-0.6,0-1.3-0.1-1.9c-0.5-2.7-2-4-4.7-4c-2.3-0.1-4.3,1.7-4.4,4.1c-0.1,1.1-0.1,2.3,0,3.4h1.5   c0,0-0.1-2.1,0-3.2c0.2-1.9,1.1-2.8,2.8-2.8c2.3-0.1,3.4,0.9,3.5,3.2c0.1,2.2,0.1,4.3,0,6.5c-0.1,0.5-0.4,1-0.8,1.3   c-1.6,1.3-3.5,2.3-4.9,3.8c-1.1,1.2-1.8,2.7-2,4.3c-0.2,2.2-0.3,4.5-0.1,6.8c-0.1,1.7,1,3.2,2.6,3.6c3.7,1,6.8-0.2,6.8-4.7   C200.2,41.5,200.3,34.7,200.3,27.9z M198.7,49.4c0,1.8-1.1,2.5-3.2,2.5s-3.1-0.7-3.2-2.5c-0.2-2.2-0.1-4.4,0-6.6   c0.2-1.3,0.7-2.5,1.6-3.5c1.4-1.4,3-2.7,4.7-3.9C198.8,39.9,198.8,44.9,198.7,49.4L198.7,49.4z"></path>
</g>
</svg>
